<?xml version="1.0" encoding="UTF-8"?>
<svg width="793.7007874015749" height="1122.5196850393702" xmlns="http://www.w3.org/2000/svg">
 <title>Phone icon</title>
 <metadata id="metadata18081">image/svg+xmlPublic Domainclker.comMohamed Ibrahimmap symbolsmap symbols</metadata>

 <g>
  <title>Layer 1</title>
  <path fill="#ffffff" fill-rule="nonzero" id="path6906" d="m97.609901,114.772682c-39.452522,0 -71.599121,32.147392 -71.599121,71.672981l0,549.488663c0,39.525574 32.146599,71.67218 71.599121,71.67218l549.634789,0c39.452515,0 71.59906,-32.146606 71.59906,-71.67218l0,-549.488663c0,-39.525589 -32.146545,-71.672981 -71.59906,-71.672981l-549.634789,0z"/>
  <path fill="#ff7f00" fill-rule="nonzero" id="path6908" d="m647.24469,822.291382c47.561951,0 86.210938,-38.648926 86.210938,-86.357056l0,-549.488663c0,-47.708908 -38.648987,-86.211777 -86.210938,-86.211777l-549.634789,0c-47.562031,0 -86.211771,38.502869 -86.211771,86.211777l0,549.488663c0,47.70813 38.64974,86.357056 86.211771,86.357056l549.634789,0z"/>
  <path fill="#ffffff" fill-rule="nonzero" id="path6910" d="m359.604767,155.175705c-29.150696,3.14119 -135.015671,51.653671 -138.15686,301.228195c-3.288101,263.018463 109.006165,318.398529 138.449097,317.814117l0,-173.665405c-24.255463,0 -29.150726,-26.447754 -34.7034,-80.951294c-3.580322,-36.09137 -4.749146,-80.585205 0,-125.006012c3.434235,-31.050812 9.132202,-61.444183 34.557251,-61.444183l-0.146088,-177.975418z"/>
  <path fill="#ffffff" fill-rule="nonzero" id="path6912" d="m439.89859,774.510254c11.324524,0 19.287964,-9.132996 19.287964,-19.434082l0.146088,-0.146118c0,0 -0.146088,-135.235596 -0.146088,-135.381714c0,-10.740112 -8.693939,-19.141785 -19.287964,-19.141785l-49.243011,0l0,174.103699c0,0 49.096924,0.146057 49.096924,0l0.146088,0z"/>
  <path fill="#ffffff" fill-rule="nonzero" id="path6914" d="m439.89859,333.151123c11.324524,0 19.287964,-9.133026 19.287964,-19.434052l0.146088,0c0,0 -0.146088,-139.253448 -0.146088,-139.399521c0,-10.740173 -8.693939,-19.141846 -19.287964,-19.141846l-49.243011,0l0,177.975418l49.096924,0.146118l0.146088,-0.146118z"/>
 </g>
</svg>